<svg width="377" height="42" viewBox="0 0 377 42" fill="none" xmlns="http://www.w3.org/2000/svg">
<path d="M20.4801 22.72H37.056L33.344 41.28H25.792L24.576 37.184H24.32C23.2106 38.464 21.8881 39.552 20.3521 40.448C18.8587 41.344 16.896 41.792 14.4641 41.792C12.5866 41.792 10.7733 41.4933 9.02405 40.896C7.31733 40.256 5.78133 39.2747 4.416 37.952C3.09333 36.5867 2.02667 34.816 1.216 32.64C0.40533 30.464 0 27.84 0 24.768C0 21.44 0.512 18.2827 1.536 15.296C2.56 12.3093 4.096 9.6853 6.144 7.424C8.19205 5.12 10.7521 3.3067 13.8241 1.984C16.8961 0.6613 20.48 0 24.576 0C27.7333 0 30.4853 0.362699 32.832 1.088C35.1786 1.8133 37.3974 2.624 39.488 3.52L37.056 15.936H26.24C26.2826 15.4667 26.3467 14.912 26.4321 14.272C26.5174 13.632 26.5814 12.9707 26.6241 12.288C26.6667 11.5627 26.7094 10.8587 26.7521 10.176C26.7947 9.4933 26.816 8.896 26.816 8.384C26.816 8.0427 26.7947 7.6587 26.7521 7.232C26.7094 6.7627 26.6027 6.3147 26.4321 5.888C26.2614 5.4613 26.0054 5.12 25.6641 4.864C25.3227 4.5653 24.8321 4.416 24.1921 4.416C23.0827 4.416 22.0587 4.8853 21.1201 5.824C20.2241 6.72 19.4133 7.936 18.688 9.472C17.9627 10.9653 17.3227 12.672 16.7681 14.592C16.2561 16.512 15.808 18.4747 15.424 20.48C15.0826 22.4427 14.8054 24.384 14.5921 26.304C14.4214 28.1813 14.3361 29.824 14.3361 31.232C14.3361 31.6587 14.3574 32.192 14.4001 32.832C14.4427 33.472 14.5707 34.112 14.784 34.752C15.04 35.3493 15.3814 35.8827 15.8081 36.352C16.2773 36.7787 16.9387 36.992 17.792 36.992C19.2001 36.992 20.5653 36.224 21.8881 34.688C23.2106 33.152 24.2134 30.592 24.896 27.008H19.5201L20.4801 22.72ZM65.1265 0C68.7959 0 71.7612 0.4693 74.0226 1.408C76.3266 2.3467 78.1399 3.7973 79.4626 5.76C80.3159 7.0827 80.9771 8.576 81.4465 10.24C81.9158 11.904 82.1506 13.824 82.1506 16C82.1506 17.8773 81.9799 19.7547 81.6385 21.632C81.2971 23.5093 80.8065 25.3227 80.1665 27.072C79.5692 28.7787 78.8226 30.4 77.9266 31.936C77.0732 33.4293 76.1132 34.752 75.0466 35.904C73.0412 38.08 70.7159 39.616 68.0705 40.512C65.4678 41.3653 62.2465 41.792 58.4065 41.792C54.6945 41.792 51.7078 41.408 49.4465 40.64C47.1852 39.872 45.3932 38.6347 44.0705 36.928C43.1318 35.7333 42.3851 34.2187 41.8305 32.384C41.3185 30.5493 41.0625 28.2453 41.0625 25.472C41.0625 20.736 41.8945 16.512 43.5585 12.8C45.2651 9.0453 47.6758 6.08 50.7905 3.904C52.6678 2.5813 54.7585 1.6 57.0625 0.96C59.3666 0.32 62.0546 0 65.1265 0ZM57.8945 37.312C58.8758 37.312 59.7931 36.8853 60.6465 36.032C61.5425 35.136 62.3531 33.9627 63.0785 32.512C63.8465 31.0187 64.5292 29.3333 65.1265 27.456C65.7665 25.5787 66.2999 23.6373 66.7266 21.632C67.1532 19.6267 67.4732 17.6427 67.6866 15.68C67.9426 13.6747 68.0705 11.8613 68.0705 10.24C68.0705 8.0213 67.8359 6.5067 67.3666 5.696C66.9399 4.8427 66.2999 4.416 65.4465 4.416C64.4651 4.416 63.5266 4.8427 62.6306 5.696C61.7346 6.5493 60.8811 7.7013 60.0705 9.152C59.3025 10.56 58.5985 12.2027 57.9585 14.08C57.3611 15.9147 56.8278 17.8133 56.3585 19.776C55.9318 21.7387 55.5905 23.68 55.3345 25.6C55.1211 27.52 55.0145 29.2907 55.0145 30.912C55.0145 33.344 55.2705 35.0293 55.7825 35.968C56.3371 36.864 57.0411 37.312 57.8945 37.312ZM121.189 0C124.859 0 127.824 0.4693 130.085 1.408C132.389 2.3467 134.203 3.7973 135.525 5.76C136.379 7.0827 137.04 8.576 137.509 10.24C137.979 11.904 138.213 13.824 138.213 16C138.213 17.8773 138.043 19.7547 137.701 21.632C137.36 23.5093 136.869 25.3227 136.229 27.072C135.632 28.7787 134.885 30.4 133.989 31.936C133.136 33.4293 132.176 34.752 131.109 35.904C129.104 38.08 126.779 39.616 124.133 40.512C121.531 41.3653 118.309 41.792 114.469 41.792C110.757 41.792 107.771 41.408 105.509 40.64C103.248 39.872 101.456 38.6347 100.133 36.928C99.1947 35.7333 98.4478 34.2187 97.8928 32.384C97.3811 30.5493 97.1251 28.2453 97.1251 25.472C97.1251 20.736 97.9567 16.512 99.6208 12.8C101.328 9.0453 103.739 6.08 106.853 3.904C108.731 2.5813 110.821 1.6 113.125 0.96C115.429 0.32 118.117 0 121.189 0ZM113.957 37.312C114.939 37.312 115.856 36.8853 116.709 36.032C117.605 35.136 118.416 33.9627 119.141 32.512C119.909 31.0187 120.592 29.3333 121.189 27.456C121.829 25.5787 122.363 23.6373 122.789 21.632C123.216 19.6267 123.536 17.6427 123.749 15.68C124.005 13.6747 124.133 11.8613 124.133 10.24C124.133 8.0213 123.899 6.5067 123.429 5.696C123.003 4.8427 122.363 4.416 121.509 4.416C120.528 4.416 119.589 4.8427 118.693 5.696C117.797 6.5493 116.944 7.7013 116.133 9.152C115.365 10.56 114.661 12.2027 114.021 14.08C113.424 15.9147 112.891 17.8133 112.421 19.776C111.995 21.7387 111.653 23.68 111.397 25.6C111.184 27.52 111.077 29.2907 111.077 30.912C111.077 33.344 111.333 35.0293 111.845 35.968C112.4 36.864 113.104 37.312 113.957 37.312ZM155.786 26.752C155.572 27.6907 155.402 28.5013 155.274 29.184C155.146 29.8667 155.082 30.5067 155.082 31.104C155.082 32.5973 155.594 33.792 156.618 34.688C157.684 35.584 159.242 36.032 161.29 36.032C162.783 36.032 163.999 35.776 164.938 35.264C165.919 34.752 166.708 34.0693 167.306 33.216C167.946 32.3627 168.436 31.3813 168.778 30.272C169.162 29.1627 169.482 27.9893 169.738 26.752L175.178 0.639999H181.002L175.434 26.88C175.007 28.928 174.388 30.848 173.578 32.64C172.767 34.432 171.594 36.0107 170.058 37.376C168.564 38.7413 166.623 39.8293 164.234 40.64C161.844 41.408 158.879 41.792 155.338 41.792C150.431 41.792 146.804 41.0027 144.458 39.424C142.111 37.8027 140.938 35.328 140.938 32C140.938 30.5067 141.13 28.608 141.514 26.304C141.898 24 142.388 21.504 142.986 18.816L146.89 0.639999H161.418L155.786 26.752ZM217.986 5.504H207.682L200.066 41.28H186.242L193.858 5.504H183.682L184.834 0.639999H219.074L217.986 5.504ZM247.918 22.72H264.494L260.782 41.28H253.23L252.014 37.184H251.758C250.648 38.464 249.326 39.552 247.79 40.448C246.296 41.344 244.334 41.792 241.902 41.792C240.024 41.792 238.211 41.4933 236.462 40.896C234.755 40.256 233.219 39.2747 231.854 37.952C230.531 36.5867 229.464 34.816 228.654 32.64C227.843 30.464 227.438 27.84 227.438 24.768C227.438 21.44 227.95 18.2827 228.974 15.296C229.998 12.3093 231.534 9.6853 233.582 7.424C235.63 5.12 238.19 3.3067 241.262 1.984C244.334 0.6613 247.918 0 252.014 0C255.171 0 257.923 0.362699 260.27 1.088C262.616 1.8133 264.835 2.624 266.926 3.52L264.494 15.936H253.678C253.72 15.4667 253.784 14.912 253.87 14.272C253.955 13.632 254.019 12.9707 254.062 12.288C254.104 11.5627 254.147 10.8587 254.19 10.176C254.232 9.4933 254.254 8.896 254.254 8.384C254.254 8.0427 254.232 7.6587 254.19 7.232C254.147 6.7627 254.04 6.3147 253.87 5.888C253.699 5.4613 253.443 5.12 253.102 4.864C252.76 4.5653 252.27 4.416 251.63 4.416C250.52 4.416 249.496 4.8853 248.558 5.824C247.662 6.72 246.851 7.936 246.126 9.472C245.4 10.9653 244.76 12.672 244.206 14.592C243.694 16.512 243.246 18.4747 242.862 20.48C242.52 22.4427 242.243 24.384 242.03 26.304C241.859 28.1813 241.774 29.824 241.774 31.232C241.774 31.6587 241.795 32.192 241.838 32.832C241.88 33.472 242.008 34.112 242.222 34.752C242.478 35.3493 242.819 35.8827 243.246 36.352C243.715 36.7787 244.376 36.992 245.23 36.992C246.638 36.992 248.003 36.224 249.326 34.688C250.648 33.152 251.651 30.592 252.334 27.008H246.958L247.918 22.72ZM274.9 0.639999H301.844L300.82 5.504H287.764L285.076 17.856H296.02L294.996 22.656H284.052L281.108 36.352H294.164L293.204 41.28H266.26L274.9 0.639999ZM333.904 41.28H318.928L318.032 31.104H306.192L301.648 41.28H295.44L314.32 0.639999H329.488L333.904 41.28ZM308.304 26.432H317.584L316.112 9.024L308.304 26.432ZM376.82 10.304C376.82 12.8213 376.116 15.1467 374.708 17.28C373.3 19.4133 370.974 21.0347 367.732 22.144L375.156 41.28H360.884L355.252 23.552H354.548L350.772 41.28H336.948L345.588 0.639999H362.42C364.382 0.639999 366.238 0.768 367.988 1.024C369.737 1.2373 371.252 1.7067 372.532 2.432C373.854 3.1147 374.9 4.096 375.668 5.376C376.436 6.6133 376.82 8.256 376.82 10.304ZM358.388 19.456C359.497 19.456 360.436 19.0933 361.204 18.368C362.014 17.6 362.654 16.6827 363.124 15.616C363.636 14.5493 363.998 13.4187 364.212 12.224C364.425 10.9867 364.532 9.92 364.532 9.024C364.532 7.9147 364.34 6.976 363.956 6.208C363.572 5.3973 362.74 4.992 361.46 4.992H358.58L355.38 19.456H358.388Z" fill="#F9F8F4"/>
</svg>
